# xmcd CD database file
#
# Track frame offsets:
#	150
#	41448
#	75098
#	108873
#	131305
#	167180
#	200410
#	233288
#
# Disc length: 3383 seconds
#
# Revision: 0
# Processed by: cddbd v1.5.2PL0 Copyright (c) Steve Scherf et al.
# Submitted via: CDex 1.70beta2
#
DISCID=4d0d3508
DTITLE=Jay Hoggard - The Fountain
DYEAR=1992
DGENRE=Jazz
TTITLE0=Sweet Potato
TTITLE1=Stompin' At The Savoy
TTITLE2=Prelude To A Kiss
TTITLE3=Starting Over
TTITLE4=Fables Of Faubus
TTITLE5=Epistrophy
TTITLE6=The Fountain
TTITLE7=My One And Only Love
EXTD=YEAR: 1992
EXTT0=
EXTT1=
EXTT2=
EXTT3=
EXTT4=
EXTT5=
EXTT6=
EXTT7=
PLAYORDER=
